ply
format ascii 1.0
comment Created by Blender 2.76 (sub 0) - www.blender.org, source file: ''
element vertex 278
property float x
property float y
property float z
property float nx
property float ny
property float nz
element face 110
property list uchar uint vertex_indices
end_header
-0.591823 0.296766 0.137932 0.000002 -0.000001 -1.000000
-0.577075 0.404362 0.137932 0.000002 -0.000001 -1.000000
-0.576268 0.356855 0.137932 0.000002 -0.000001 -1.000000
-0.576268 0.356855 0.137932 0.000001 -0.000001 -1.000000
-0.577075 0.404362 0.137932 0.000001 -0.000001 -1.000000
-0.552192 0.398699 0.137932 0.000001 -0.000001 -1.000000
-0.496468 0.451782 0.137932 0.000001 -0.000001 -1.000000
-0.552192 0.398699 0.137932 -0.000000 0.000000 -1.000000
-0.496468 0.451782 0.137932 -0.000000 0.000000 -1.000000
-0.491307 0.431092 0.137932 -0.000000 0.000000 -1.000000
0.521394 0.442616 0.137932 -0.000000 -0.000000 -1.000000
0.460426 0.431092 0.137932 -0.000000 0.000000 -1.000000
0.526265 0.410559 0.137932 -0.000000 0.000000 -1.000000
0.560227 0.367077 0.137932 -0.000000 -0.000000 -1.000000
0.560227 0.367077 0.137932 -0.000001 -0.000001 -1.000000
0.521394 0.442616 0.137932 -0.000001 -0.000001 -1.000000
0.591585 0.352030 0.137932 -0.000001 -0.000001 -1.000000
0.560227 0.367077 0.137932 -0.000001 -0.000000 -1.000000
0.591585 0.352030 0.137932 -0.000001 -0.000000 -1.000000
0.576610 0.321666 0.137932 -0.000001 -0.000000 -1.000000
0.576610 0.321666 0.137932 -0.000002 -0.000000 -1.000000
0.591585 0.352030 0.137932 -0.000002 -0.000000 -1.000000
0.581336 0.266696 0.137932 -0.000002 -0.000000 -1.000000
-0.591823 0.296766 0.137932 -0.000000 -0.000000 -1.000000
-0.614896 0.279390 0.137932 -0.000000 -0.000000 -1.000000
-0.577075 0.404362 0.137932 -0.000000 -0.000000 -1.000000
-0.614896 0.279390 0.137932 -0.000001 -0.000000 -1.000000
-0.591823 0.296766 0.137932 -0.000001 -0.000000 -1.000000
-0.569150 0.217173 0.137932 -0.000001 -0.000000 -1.000000
-0.132342 -0.703842 0.137932 -0.000001 -0.000000 -1.000000
-0.132342 -0.703842 0.137932 -0.000000 -0.000000 -1.000000
-0.569150 0.217173 0.137932 -0.000000 -0.000000 -1.000000
-0.455206 -0.021511 0.137932 -0.000000 -0.000000 -1.000000
-0.161970 -0.599683 0.137932 -0.000000 -0.000000 -1.000000
-0.102369 -0.700646 0.137932 -0.000000 -0.000000 -1.000000
-0.049513 -0.754041 0.137932 -0.000000 0.000000 -1.000000
-0.049513 -0.754041 0.137932 0.000001 0.000001 -1.000000
-0.102369 -0.700646 0.137932 0.000001 0.000001 -1.000000
-0.069434 -0.725697 0.137932 0.000001 0.000001 -1.000000
-0.049513 -0.754041 0.137932 0.000000 0.000001 -1.000000
-0.069434 -0.725697 0.137932 0.000000 0.000001 -1.000000
-0.014261 -0.725697 0.137932 0.000000 0.000001 -1.000000
0.049427 -0.699237 0.137932 -0.000000 0.000001 -1.000000
0.049427 -0.699237 0.137932 0.000000 0.000000 -1.000000
0.071778 -0.709977 0.137932 0.000000 0.000000 -1.000000
0.113049 -0.609079 0.137932 0.000000 -0.000000 -1.000000
0.581336 0.266696 0.137932 0.000000 0.000000 -1.000000
0.602475 0.262353 0.137932 -0.000000 0.000000 -1.000000
0.591585 0.352030 0.137932 -0.000000 -0.000000 -1.000000
-0.613491 0.266359 0.020690 0.895882 0.444292 -0.000000
-0.132342 -0.703842 0.137932 0.895882 0.444292 -0.000000
-0.132342 -0.703842 0.020690 0.895882 0.444292 -0.000000
-0.132342 -0.703842 0.137932 0.897058 0.440261 -0.038180
-0.613491 0.266359 0.020690 0.897058 0.440261 -0.038180
-0.614896 0.279390 0.137932 0.897058 0.440261 -0.038180
-0.614896 0.279390 0.137932 0.969722 -0.241168 0.038431
-0.613491 0.266359 0.020690 0.969722 -0.241168 0.038431
-0.579159 0.404403 0.020690 0.969722 -0.241168 0.038431
-0.614896 0.279390 0.137932 0.956989 -0.289618 -0.017112
-0.579159 0.404403 0.020690 0.956989 -0.289618 -0.017112
-0.577075 0.404362 0.137932 0.956989 -0.289618 -0.017112
0.521394 0.442616 0.137932 -0.012006 -0.999588 0.026079
-0.496468 0.451782 0.020690 -0.012006 -0.999588 0.026079
0.521755 0.439552 0.020690 -0.012006 -0.999588 0.026079
-0.496468 0.451782 0.020690 -0.009005 -0.999960 0.000000
0.521394 0.442616 0.137932 -0.009005 -0.999960 0.000000
-0.496468 0.451782 0.137932 -0.009005 -0.999960 0.000000
0.521394 0.442616 0.137932 -0.790250 -0.612333 -0.023518
0.588051 0.361095 0.020690 -0.790250 -0.612333 -0.023518
0.591585 0.352030 0.137932 -0.790250 -0.612333 -0.023518
0.588051 0.361095 0.020690 -0.763743 -0.645357 0.014515
0.521394 0.442616 0.137932 -0.763743 -0.645357 0.014515
0.521755 0.439552 0.020690 -0.763743 -0.645357 0.014515
0.591585 0.352030 0.137932 -0.992707 -0.120548 -0.000000
0.602475 0.262353 0.020690 -0.992707 -0.120548 -0.000000
0.602475 0.262353 0.137932 -0.992707 -0.120548 -0.000000
0.602475 0.262353 0.020690 -0.989326 -0.144523 0.018652
0.591585 0.352030 0.137932 -0.989326 -0.144523 0.018652
0.588051 0.361095 0.020690 -0.989326 -0.144523 0.018652
0.602475 0.262353 0.137932 -0.877610 0.478999 -0.018981
0.074662 -0.709339 0.020690 -0.877610 0.478999 -0.018981
0.071778 -0.709977 0.137932 -0.877610 0.478999 -0.018981
0.074662 -0.709339 0.020690 -0.878731 0.477318 0.000000
0.602475 0.262353 0.137932 -0.878731 0.477318 0.000000
0.602475 0.262353 0.020690 -0.878731 0.477318 0.000000
-0.049513 -0.754041 0.137932 -0.305263 0.951450 0.039452
0.074662 -0.709339 0.020690 -0.305263 0.951450 0.039452
-0.060870 -0.752823 0.020690 -0.305263 0.951450 0.039452
0.074662 -0.709339 0.020690 -0.341458 0.939892 -0.003289
-0.049513 -0.754041 0.137932 -0.341458 0.939892 -0.003289
0.071778 -0.709977 0.137932 -0.341458 0.939892 -0.003289
-0.132342 -0.703842 0.137932 0.565308 0.824880 0.000000
-0.060870 -0.752823 0.020690 0.565308 0.824880 0.000000
-0.132342 -0.703842 0.020690 0.565308 0.824880 0.000000
-0.060870 -0.752823 0.020690 0.517858 0.854470 -0.041288
-0.132342 -0.703842 0.137932 0.517858 0.854470 -0.041288
-0.049513 -0.754041 0.137932 0.517858 0.854470 -0.041288
-0.496468 0.451782 0.137932 0.497147 -0.867667 0.000000
-0.579159 0.404403 0.020690 0.497147 -0.867667 0.000000
-0.496468 0.451782 0.020690 0.497147 -0.867667 0.000000
-0.579159 0.404403 0.020690 0.507032 -0.861877 -0.009312
-0.496468 0.451782 0.137932 0.507032 -0.861877 -0.009312
-0.577075 0.404362 0.137932 0.507032 -0.861877 -0.009312
0.627235 0.244958 0.008867 -0.868285 0.481162 -0.120685
0.076458 -0.751175 0.000000 -0.868285 0.481162 -0.120685
0.074349 -0.749792 0.020690 -0.868285 0.481162 -0.120685
-0.641743 0.268078 0.011823 0.238796 0.065535 -0.968856
-0.640816 0.395789 0.020690 0.238796 0.065535 -0.968856
-0.613569 0.296506 0.020690 0.238796 0.065535 -0.968856
-0.613569 0.296506 0.020690 -0.000000 -0.000000 -1.000000
-0.640816 0.395789 0.020690 -0.000000 -0.000000 -1.000000
-0.595903 0.364748 0.020690 -0.000000 -0.000000 -1.000000
-0.567467 0.414172 0.020690 0.000000 -0.000000 -1.000000
-0.567467 0.414172 0.020690 0.056592 -0.225811 -0.972526
-0.640816 0.395789 0.020690 0.056592 -0.225811 -0.972526
-0.536700 0.477575 0.007759 0.056592 -0.225811 -0.972526
-0.567467 0.414172 0.020690 0.139659 -0.262500 -0.954772
-0.536700 0.477575 0.007759 0.139659 -0.262500 -0.954772
-0.496775 0.451782 0.020690 0.139659 -0.262500 -0.954772
-0.496775 0.451782 0.020690 0.002459 -0.445135 -0.895460
-0.536700 0.477575 0.007759 0.002459 -0.445135 -0.895460
0.501555 0.478108 0.010345 0.002459 -0.445135 -0.895460
-0.496775 0.451782 0.020690 0.000000 -0.365729 -0.930721
0.501555 0.478108 0.010345 0.000000 -0.365729 -0.930721
0.463271 0.451782 0.020690 0.000000 -0.365729 -0.930721
0.463271 0.451782 0.020690 -0.081123 -0.260115 -0.962164
0.501555 0.478108 0.010345 -0.081123 -0.260115 -0.962164
0.538286 0.428387 0.020690 -0.081123 -0.260115 -0.962164
0.538286 0.428387 0.020690 -0.450007 -0.488041 -0.747870
0.501555 0.478108 0.010345 -0.450007 -0.488041 -0.747870
0.621946 0.355210 0.018104 -0.450007 -0.488041 -0.747870
0.538286 0.428387 0.020690 -0.096841 -0.075639 -0.992422
0.621946 0.355210 0.018104 -0.096841 -0.075639 -0.992422
0.578260 0.377208 0.020690 -0.096841 -0.075639 -0.992422
0.578260 0.377208 0.020690 -0.072131 -0.026023 -0.997056
0.621946 0.355210 0.018104 -0.072131 -0.026023 -0.997056
0.596685 0.326138 0.020690 -0.072131 -0.026023 -0.997056
0.596685 0.326138 0.020690 -0.092759 -0.007974 -0.995657
0.621946 0.355210 0.018104 -0.092759 -0.007974 -0.995657
0.602168 0.262353 0.020690 -0.092759 -0.007974 -0.995657
-0.641743 0.268078 0.011823 0.390576 0.179352 -0.902930
-0.579697 0.177600 0.020690 0.390576 0.179352 -0.902930
-0.165401 -0.724614 0.020690 0.390576 0.179352 -0.902930
-0.579697 0.177600 0.020690 0.236925 0.067491 -0.969181
-0.641743 0.268078 0.011823 0.236925 0.067491 -0.969181
-0.613569 0.296506 0.020690 0.236925 0.067491 -0.969181
-0.165401 -0.724614 0.020690 -0.000000 -0.000000 -1.000000
-0.579697 0.177600 0.020690 -0.000000 -0.000000 -1.000000
-0.132649 -0.703842 0.020690 -0.000000 -0.000000 -1.000000
-0.061304 -0.788080 0.020690 -0.000000 -0.000000 -1.000000
-0.076716 -0.746387 0.020690 -0.000000 -0.000000 -1.000000
-0.010441 -0.746387 0.020690 -0.000000 -0.000000 -1.000000
0.074349 -0.749792 0.020690 0.000000 -0.000000 -1.000000
0.062578 -0.716050 0.020690 0.000000 -0.000000 -1.000000
0.130385 -0.619963 0.020690 0.000000 -0.000000 -1.000000
0.130385 -0.619963 0.020690 -0.095185 0.041083 -0.994612
0.627235 0.244958 0.008867 -0.095185 0.041083 -0.994612
0.074349 -0.749792 0.020690 -0.095185 0.041083 -0.994612
0.627235 0.244958 0.008867 -0.320488 0.171368 -0.931623
0.130385 -0.619963 0.020690 -0.320488 0.171368 -0.931623
0.602168 0.262353 0.020690 -0.320488 0.171368 -0.931623
0.627235 0.244958 0.008867 -0.392626 0.058059 -0.917864
0.602168 0.262353 0.020690 -0.392626 0.058059 -0.917864
0.621946 0.355210 0.018104 -0.392626 0.058059 -0.917864
-0.640816 0.395789 0.020690 0.622355 -0.775523 0.106011
-0.641743 0.392217 0.000000 0.622355 -0.775523 0.106011
-0.536700 0.477575 0.007759 0.622355 -0.775523 0.106011
0.501555 0.478108 0.010345 -0.580946 -0.603570 -0.546082
0.600515 0.392217 0.000000 -0.580946 -0.603570 -0.546082
0.621946 0.355210 0.018104 -0.580946 -0.603570 -0.546082
-0.061304 -0.788080 0.020690 -0.215468 0.944129 0.249386
0.076458 -0.751175 0.000000 -0.215468 0.944129 0.249386
-0.074217 -0.785562 0.000000 -0.215468 0.944129 0.249386
0.076458 -0.751175 0.000000 -0.270492 0.958353 -0.091617
-0.061304 -0.788080 0.020690 -0.270492 0.958353 -0.091617
0.074349 -0.749792 0.020690 -0.270492 0.958353 -0.091617
-0.165401 -0.724614 0.020690 0.555040 0.831813 -0.004173
-0.074217 -0.785562 0.000000 0.555040 0.831813 -0.004173
-0.162598 -0.726589 0.000000 0.555040 0.831813 -0.004173
-0.074217 -0.785562 0.000000 0.508291 0.833711 -0.215793
-0.165401 -0.724614 0.020690 0.508291 0.833711 -0.215793
-0.061304 -0.788080 0.020690 0.508291 0.833711 -0.215793
-0.641743 0.268078 0.011823 0.898368 0.431800 0.080520
-0.165401 -0.724614 0.020690 0.898368 0.431800 0.080520
-0.162598 -0.726589 0.000000 0.898368 0.431800 0.080520
-0.592403 0.267102 0.137932 -0.893233 -0.449513 0.008583
-0.109899 -0.694322 0.000000 -0.893233 -0.449513 0.008583
-0.107956 -0.695549 0.137932 -0.893233 -0.449513 0.008583
-0.109899 -0.694322 0.000000 -0.894497 -0.446841 -0.014462
-0.592403 0.267102 0.137932 -0.894497 -0.446841 -0.014462
-0.594281 0.275325 0.000000 -0.894497 -0.446841 -0.014462
-0.056805 -0.731055 0.137932 -0.516471 -0.855810 -0.029111
-0.109899 -0.694322 0.000000 -0.516471 -0.855810 -0.029111
-0.047350 -0.732069 0.000000 -0.516471 -0.855810 -0.029111
-0.109899 -0.694322 0.000000 -0.570232 -0.821484 0.000724
-0.056805 -0.731055 0.137932 -0.570232 -0.821484 0.000724
-0.107956 -0.695549 0.137932 -0.570232 -0.821484 0.000724
0.060170 -0.692940 0.137932 0.345031 -0.938587 -0.002698
-0.047350 -0.732069 0.000000 0.345031 -0.938587 -0.002698
0.057465 -0.693538 0.000000 0.345031 -0.938587 -0.002698
-0.047350 -0.732069 0.000000 0.309684 -0.950421 0.028213
0.060170 -0.692940 0.137932 0.309684 -0.950421 0.028213
-0.056805 -0.731055 0.137932 0.309684 -0.950421 0.028213
0.587287 0.297621 0.000000 0.881805 -0.471367 -0.015253
0.060170 -0.692940 0.137932 0.881805 -0.471367 -0.015253
0.057465 -0.693538 0.000000 0.881805 -0.471367 -0.015253
0.060170 -0.692940 0.137932 0.876916 -0.475961 -0.066928
0.587287 0.297621 0.000000 0.876916 -0.475961 -0.066928
0.581029 0.266696 0.137932 0.876916 -0.475961 -0.066928
0.581029 0.266696 0.137932 0.986363 0.145288 0.077326
0.587287 0.297621 0.000000 0.986363 0.145288 0.077326
0.568353 0.352749 0.137932 0.986363 0.145288 0.077326
0.510863 0.423047 0.000000 0.850471 0.518201 -0.090371
0.568353 0.352749 0.137932 0.850471 0.518201 -0.090371
0.587287 0.297621 0.000000 0.850471 0.518201 -0.090371
0.568353 0.352749 0.137932 0.763524 0.645689 0.010843
0.510863 0.423047 0.000000 0.763524 0.645689 0.010843
0.511178 0.420358 0.137932 0.763524 0.645689 0.010843
-0.491614 0.431092 0.137932 -0.011122 0.990287 -0.138595
0.510863 0.423047 0.000000 -0.011122 0.990287 -0.138595
-0.546713 0.411169 0.000000 -0.011122 0.990287 -0.138595
0.510863 0.423047 0.000000 0.010701 0.999753 0.019464
-0.491614 0.431092 0.137932 0.010701 0.999753 0.019464
0.511178 0.420358 0.137932 0.010701 0.999753 0.019464
-0.546713 0.411169 0.000000 -0.495434 0.865583 0.072881
-0.562658 0.390429 0.137932 -0.495434 0.865583 0.072881
-0.491614 0.431092 0.137932 -0.495434 0.865583 0.072881
-0.641743 0.268078 0.011823 0.999021 -0.004194 -0.044041
-0.641743 0.392217 0.000000 0.999021 -0.004194 -0.044041
-0.640816 0.395789 0.020690 0.999021 -0.004194 -0.044041
-0.562658 0.390429 0.137932 -0.971764 0.234381 0.027201
-0.594281 0.275325 0.000000 -0.971764 0.234381 0.027201
-0.592403 0.267102 0.137932 -0.971764 0.234381 0.027201
-0.594281 0.275325 0.000000 -0.942148 0.329910 -0.059308
-0.562658 0.390429 0.137932 -0.942148 0.329910 -0.059308
-0.546713 0.411169 0.000000 -0.942148 0.329910 -0.059308
-0.536700 0.477575 0.007759 -0.023844 0.119562 -0.992540
-0.546713 0.411169 0.000000 -0.023844 0.119562 -0.992540
-0.641743 0.392217 0.000000 -0.023844 0.119562 -0.992540
-0.546713 0.411169 0.000000 0.002415 0.115689 -0.993283
-0.536700 0.477575 0.007759 0.002415 0.115689 -0.993283
0.501555 0.478108 0.010345 0.002415 0.115689 -0.993283
-0.546713 0.411169 0.000000 -0.002070 0.184311 -0.982866
0.501555 0.478108 0.010345 -0.002070 0.184311 -0.982866
0.510863 0.423047 0.000000 -0.002070 0.184311 -0.982866
0.510863 0.423047 0.000000 0.067121 0.195183 -0.978467
0.501555 0.478108 0.010345 0.067121 0.195183 -0.978467
0.600515 0.392217 0.000000 0.067121 0.195183 -0.978467
0.510863 0.423047 0.000000 0.000000 -0.000000 -1.000000
0.600515 0.392217 0.000000 0.000000 -0.000000 -1.000000
0.587287 0.297621 0.000000 0.000000 -0.000000 -1.000000
-0.641743 0.268078 0.011823 -0.226503 -0.097591 -0.969109
-0.594281 0.275325 0.000000 -0.226503 -0.097591 -0.969109
-0.162598 -0.726589 0.000000 -0.226503 -0.097591 -0.969109
-0.162598 -0.726589 0.000000 0.000000 0.000000 -1.000000
-0.594281 0.275325 0.000000 0.000000 0.000000 -1.000000
-0.109899 -0.694322 0.000000 0.000000 0.000000 -1.000000
-0.074217 -0.785562 0.000000 0.000000 0.000000 -1.000000
-0.047350 -0.732069 0.000000 -0.000000 0.000000 -1.000000
0.076458 -0.751175 0.000000 -0.000000 -0.000000 -1.000000
0.057465 -0.693538 0.000000 -0.000000 0.000000 -1.000000
0.076458 -0.751175 0.000000 0.010087 0.003324 -0.999944
0.057465 -0.693538 0.000000 0.010087 0.003324 -0.999944
0.627235 0.244958 0.008867 0.010087 0.003324 -0.999944
0.627235 0.244958 0.008867 0.128813 -0.068857 -0.989276
0.057465 -0.693538 0.000000 0.128813 -0.068857 -0.989276
0.587287 0.297621 0.000000 0.128813 -0.068857 -0.989276
0.627235 0.244958 0.008867 0.184147 -0.025751 -0.982561
0.587287 0.297621 0.000000 0.184147 -0.025751 -0.982561
0.600515 0.392217 0.000000 0.184147 -0.025751 -0.982561
0.627235 0.244958 0.008867 0.730291 0.091749 -0.676947
0.600515 0.392217 0.000000 0.730291 0.091749 -0.676947
0.621946 0.355210 0.018104 0.730291 0.091749 -0.676947
-0.641743 0.392217 0.000000 0.000000 0.000000 -1.000000
-0.546713 0.411169 0.000000 0.000000 0.000000 -1.000000
-0.594281 0.275325 0.000000 -0.227384 -0.092326 -0.969419
-0.641743 0.268078 0.011823 -0.227384 -0.092326 -0.969419
-0.641743 0.392217 0.000000 -0.227384 -0.092326 -0.969419
3 0 1 2
3 3 4 5
3 5 4 6
3 7 8 9
3 9 8 10
3 9 10 11
3 11 10 12
3 12 10 13
3 14 15 16
3 17 18 19
3 20 21 22
3 23 24 25
3 26 27 28
3 26 28 29
3 30 31 32
3 30 32 33
3 30 33 34
3 30 34 35
3 36 37 38
3 39 40 41
3 39 41 42
3 35 43 44
3 44 43 45
3 44 45 46
3 44 46 47
3 47 46 48
3 49 50 51
3 52 53 54
3 55 56 57
3 58 59 60
3 61 62 63
3 64 65 66
3 67 68 69
3 70 71 72
3 73 74 75
3 76 77 78
3 79 80 81
3 82 83 84
3 85 86 87
3 88 89 90
3 91 92 93
3 94 95 96
3 97 98 99
3 100 101 102
3 103 104 105
3 106 107 108
3 109 110 111
3 111 110 112
3 113 114 115
3 116 117 118
3 119 120 121
3 122 123 124
3 125 126 127
3 128 129 130
3 131 132 133
3 134 135 136
3 137 138 139
3 140 141 142
3 143 144 145
3 146 147 148
3 146 148 149
3 149 148 150
3 149 150 151
3 149 151 152
3 152 151 153
3 152 153 154
3 155 156 157
3 158 159 160
3 161 162 163
3 164 165 166
3 167 168 169
3 170 171 172
3 173 174 175
3 176 177 178
3 179 180 181
3 182 183 184
3 185 186 187
3 188 189 190
3 191 192 193
3 194 195 196
3 197 198 199
3 200 201 202
3 203 204 205
3 206 207 208
3 209 210 211
3 212 213 214
3 215 216 217
3 218 219 220
3 221 222 223
3 224 225 226
3 227 228 229
3 230 231 232
3 233 234 235
3 236 237 238
3 239 240 241
3 242 243 244
3 245 246 247
3 248 249 250
3 251 252 253
3 254 255 256
3 254 256 257
3 257 256 258
3 257 258 259
3 259 258 260
3 261 262 263
3 264 265 266
3 267 268 269
3 270 271 272
3 273 274 255
3 275 276 277
